# xmcd
#
# Track frame offsets: 
#        150
#        14109
#        23791
#        33410
#        43749
#        54688
#        64832
#        78836
#        90844
#        102572
#        115224
#        124839
#        138671
#        151409
#        162759
#        174910
#        185269
#        195633
#        206492
#        227416
#
# Disc length: 3186 seconds
#
# Revision: 0
# Processed by: cddbd v1.5.2PL0 Copyright (c) Steve Scherf et al.
# Submitted via: ExactAudioCopy v1.0b4
#
DISCID=070c7014
DTITLE=LaVern Baker - After You're Gone
DYEAR=2015
DGENRE=R&B
TTITLE0=After You're Gone
TTITLE1=Tra La La
TTITLE2=Manana
TTITLE3=Tiny Tim
TTITLE4=Don Juan
TTITLE5=Senor Big And Fine
TTITLE6=Gimme A Pigfoot (And A Bottle Of Beer)
TTITLE7=There'll Be A Hot Time In The Old Town Tonight
TTITLE8=I Can't Love You Enough
TTITLE9=Young Woman's Blues
TTITLE10=Everybody's Somebody's Fool
TTITLE11=Bop-Ting-A-Ling
TTITLE12=I’m In A Crying Mood
TTITLE13=That's All I Need
TTITLE14=How Long Will It Be
TTITLE15=Shadows Of Love
TTITLE16=No Love So True
TTITLE17=Why Baby Why
TTITLE18=Back Water Blues
TTITLE19=Must I Cry Again
EXTD=
EXTT0=
EXTT1=
EXTT2=
EXTT3=
EXTT4=
EXTT5=
EXTT6=
EXTT7=
EXTT8=
EXTT9=
EXTT10=
EXTT11=
EXTT12=
EXTT13=
EXTT14=
EXTT15=
EXTT16=
EXTT17=
EXTT18=
EXTT19=
PLAYORDER=
